<svg xmlns="http://www.w3.org/2000/svg" viewBox="0 0 64 64" id="Coding"><path d="M10 11v26.788l-3.914 8.806A1 1 0 0 0 7 48h3.98v7A6.614 6.614 0 0 0 14 60.554V63h2v-3a1 1 0 0 0-.5-.867A4.72 4.72 0 0 1 12.98 55v-8a.5.5 0 0 1 1 0v3h2v-5a.5.5 0 0 1 1 0v5h2v-7a.5.5 0 0 1 1 0v7h2v-5.012a.5.5 0 0 1 1 .012v8a1 1 0 0 0 1.646.764l1.517-1.284a1.008 1.008 0 0 0 .166-.179.768.768 0 0 1 .628-.324.76.76 0 0 1 .747.523.827.827 0 0 1 0 .538l-2.722 4.722A2.183 2.183 0 0 1 23 59a1 1 0 0 0-1 1v3h2v-2.12a4.113 4.113 0 0 0 2.726-2.18l2.724-4.731a2.824 2.824 0 0 0 .138-2.08 2.785 2.785 0 0 0-4.608-1.1V48h12.04v2.787a2.785 2.785 0 0 0-4.61 1.113 2.848 2.848 0 0 0 .177 2.141l2.656 4.6A4.179 4.179 0 0 0 38 60.88V63h2v-3a1 1 0 0 0-1-1 2.219 2.219 0 0 1-1.994-1.3l-2.65-4.595a.814.814 0 0 1-.042-.6.784.784 0 0 1 1.377-.206 1.008 1.008 0 0 0 .166.179l1.517 1.284A1 1 0 0 0 39.02 53v-8a.5.5 0 0 1 1-.012V50h2v-7a.5.5 0 0 1 1 0v7h2v-5a.5.5 0 0 1 1 0v5h2v-3a.5.5 0 0 1 1 0v8a4.72 4.72 0 0 1-2.52 4.133A1 1 0 0 0 46 60v3h2v-2.446A6.614 6.614 0 0 0 51.02 55v-7H55a1 1 0 0 0 .914-1.406L52 37.788V28h-2v9H12V12h29v-2H11a1 1 0 0 0-1 1Zm40.35 28 3.111 7h-2.653a2.475 2.475 0 0 0-2.834-1.436 2.5 2.5 0 0 0-2.456-2.064 2.448 2.448 0 0 0-.545.064 2.493 2.493 0 0 0-4.911 0A2.486 2.486 0 0 0 37.02 45v1H24.98v-1a2.486 2.486 0 0 0-3.042-2.437 2.493 2.493 0 0 0-4.911 0 2.448 2.448 0 0 0-.545-.064 2.5 2.5 0 0 0-2.456 2.064A2.475 2.475 0 0 0 11.192 46H8.539l3.111-7Z" fill="#1a4d2e" class="color000000 svgShape"></path><path d="m25.985 20.643-5 3a1 1 0 0 0 0 1.714l5 3 1.03-1.714-3.571-2.143 3.571-2.143zm10.03 7.714 5-3a1 1 0 0 0 0-1.714l-5-3-1.03 1.714 3.571 2.143-3.571 2.143zM28.564 28.149l3-8 1.873.702-3 8zM43.4 11.988a7.553 7.553 0 0 0 3.667 6.469v3.076a3.933 3.933 0 1 0 7.866 0v-3.076a7.6 7.6 0 0 0-4.166-14.093 7.649 7.649 0 0 0-7.367 7.624Zm9.533 9.545a1.933 1.933 0 1 1-3.866 0v-1.2h3.866ZM50.827 6.364h.175a5.6 5.6 0 0 1 2.486 10.61 1 1 0 0 0-.555.895v.467h-3.866v-.467a1 1 0 0 0-.555-.895A5.572 5.572 0 0 1 45.4 11.98a5.7 5.7 0 0 1 5.427-5.616ZM50 1h2v2.2h-2zM42.514 4.929l1.415-1.415 1.555 1.556-1.414 1.414zM56.515 5.07l1.556-1.555 1.414 1.414-1.556 1.556z" fill="#1a4d2e" class="color000000 svgShape"></path></svg>